<?xml version="1.0" encoding="UTF-8"?>
<svg id="Layer_1" xmlns="http://www.w3.org/2000/svg" version="1.1" viewBox="0 0 67 67">
  <!-- Generator: Adobe Illustrator 29.3.0, SVG Export Plug-In . SVG Version: 2.1.0 Build 146)  -->
  <path d="M47.6,14l-2.2-9.6c-.1-.5-.7-.9-1.2-.8-.2,0-.3.1-.5.2l-9.1,8.5h-4.1L24.1,1.4c-.3-.5-.9-.7-1.4-.4-.2,0-.3.2-.4.4l-6.4,11.1H2.1c-.6,0-1,.5-1,1,0,.3.1.5.3.7l10,10v40.3h24.7c8.7,0,15.4-2.1,20-6.3s7-10.7,7-19.4c0-13.3-5.1-21.5-15.4-24.8ZM40.8,47.4c-1.5,1.5-3.9,2.2-7.1,2.2h-2.9v-21.2h2.9c1.8,0,3.6.2,5.4.7,1.4.5,2.5,1.6,3,3,.8,2.1,1.1,4.4,1,6.6,0,4.3-.8,7.1-2.3,8.6h0Z" fill="#3dd232"/>
</svg>