<?xml version="1.0" encoding="UTF-8"?><svg id="Layer_1" xmlns="http://www.w3.org/2000/svg" viewBox="0 0 67 67"><defs><style>.cls-1{fill:#085e49;}.cls-2{fill:#3dd232;}</style></defs><rect class="cls-1" width="67" height="67"/><path class="cls-2" d="M46.61,17.71l-1.86-8.12c-.08-.42-.59-.76-1.01-.68-.17,0-.25.08-.42.17l-7.69,7.19h-3.47l-5.41-9.22c-.25-.42-.76-.59-1.18-.34-.17,0-.25.17-.34.34l-5.41,9.39h-11.67c-.51,0-.85.42-.85.85,0,.25.08.42.25.59l8.46,8.46v34.07h20.88c7.36,0,13.02-1.78,16.91-5.33s5.92-9.05,5.92-16.4c0-11.25-4.31-18.18-13.02-20.97h-.08ZM40.86,45.95c-1.27,1.27-3.3,1.86-6,1.86h-2.45v-17.93h2.45c1.52,0,3.04.17,4.57.59,1.18.42,2.11,1.35,2.54,2.54.68,1.78.93,3.72.85,5.58,0,3.64-.68,6-1.94,7.27h0v.08Z"/></svg>